# xmcd CD database file
#
# Track frame offsets:
#	150
#	14792
#	32828
#	48623
#	68009
#	86774
#	103555
#	119522
#	135144
#	150781
#	169776
#	186530
#
# Disc length: 2583 seconds
#
# Revision: 1
# Processed by: cddbd v1.5.2PL0 Copyright (c) Steve Scherf et al.
# Submitted via: CDex 1.51
#
DISCID=9c0a150c
DTITLE=Jimmy Needham - Speak
DYEAR=2006
DGENRE=Alternative Rock
TTITLE0=I Am New
TTITLE1=Lost At Sea
TTITLE2=Frence Riders
TTITLE3=Dearly Loved
TTITLE4=For Freedom
TTITLE5=Speak
TTITLE6=You Make Me Sing
TTITLE7=Wake Up
TTITLE8=Regardless
TTITLE9=Stand On Grace
TTITLE10=The Gospel
TTITLE11=Benediction
EXTD=www.gerth.de, Art.-Nr. 104301 YEAR: 2006
EXTT0=
EXTT1=
EXTT2=
EXTT3=
EXTT4=
EXTT5=
EXTT6=
EXTT7=
EXTT8=
EXTT9=
EXTT10=
EXTT11=
PLAYORDER=
